<svg xmlns="http://www.w3.org/2000/svg" width="72" height="72" viewBox="0 0 72 72" id="airbnb"><defs><linearGradient id="a" x1="50%" x2="50%" y1="0%" y2="100%"><stop offset="0%" stop-color="#4b5867"></stop><stop offset="52.7%" stop-color="#4b5867"></stop><stop offset="100%" stop-color="#4b5867"></stop></linearGradient></defs><g fill="none" fill-rule="evenodd"><g><rect width="72" height="72" fill="url(#a)" rx="4"></rect><path fill="#FFF" d="M56.406 45.692c-.226-.552-.452-1.15-.678-1.657-.362-.828-.724-1.612-1.041-2.348l-.045-.047a485.403 485.403 0 0 0-10-20.812l-.137-.277c-.361-.69-.723-1.427-1.085-2.163-.453-.83-.905-1.704-1.63-2.533C40.344 14.014 38.262 13 36.046 13c-2.263 0-4.299 1.014-5.792 2.764-.68.828-1.177 1.703-1.629 2.532-.363.736-.724 1.473-1.086 2.164l-.137.276c-3.483 6.907-6.877 13.906-10 20.812l-.044.092c-.317.738-.68 1.52-1.041 2.35a30.123 30.123 0 0 0-.679 1.657c-.589 1.703-.769 3.315-.543 4.972.497 3.454 2.76 6.354 5.882 7.644 1.176.507 2.399.737 3.665.737.363 0 .815-.047 1.176-.092 1.494-.185 3.033-.69 4.526-1.565 1.855-1.06 3.62-2.58 5.611-4.79 1.99 2.21 3.8 3.73 5.61 4.79 1.494.874 3.032 1.38 4.525 1.565.362.045.815.092 1.177.092 1.267 0 2.534-.23 3.665-.737 3.168-1.29 5.385-4.237 5.883-7.644.361-1.612.181-3.222-.408-4.927zM36 48.087c-2.444-3.132-4.027-6.077-4.57-8.564-.226-1.06-.272-1.98-.136-2.81.09-.735.362-1.381.724-1.932.86-1.244 2.308-2.027 3.982-2.027 1.675 0 3.168.737 3.982 2.027.362.55.633 1.197.724 1.933.135.829.09 1.795-.135 2.809-.543 2.44-2.127 5.387-4.571 8.564zm18.054 2.164a6.822 6.822 0 0 1-4.117 5.387c-1.086.46-2.262.6-3.439.46-1.132-.137-2.262-.505-3.439-1.197-1.629-.92-3.258-2.347-5.158-4.465 2.986-3.73 4.797-7.138 5.475-10.176.317-1.427.361-2.717.226-3.914a7.57 7.57 0 0 0-1.221-3.132c-1.403-2.072-3.756-3.27-6.381-3.27-2.624 0-4.977 1.245-6.38 3.27a7.535 7.535 0 0 0-1.221 3.132 9.703 9.703 0 0 0 .226 3.914c.678 3.038 2.533 6.492 5.475 10.221-1.856 2.118-3.53 3.545-5.158 4.467-1.177.69-2.309 1.06-3.44 1.197a7.136 7.136 0 0 1-3.438-.46 6.827 6.827 0 0 1-4.119-5.388c-.135-1.15-.044-2.302.408-3.592.137-.46.361-.92.589-1.473a96.58 96.58 0 0 1 1.04-2.302l.046-.092c3.122-6.86 6.47-13.86 9.954-20.675l.136-.275c.362-.692.723-1.428 1.086-2.12.362-.736.77-1.427 1.266-2.024.95-1.105 2.218-1.705 3.62-1.705 1.403 0 2.67.6 3.62 1.705.498.597.905 1.288 1.268 2.025.362.691.723 1.427 1.086 2.119l.135.275a615.322 615.322 0 0 1 9.91 20.722v.045c.361.737.678 1.565 1.04 2.302.227.553.453 1.013.588 1.473.363 1.197.499 2.35.317 3.546z"></path></g></g></svg>