<svg fill="#ffffff" xmlns="http://www.w3.org/2000/svg" xmlns:xlink="http://www.w3.org/1999/xlink" version="1.1" x="0px" y="0px" viewBox="0 0 50 50" enable-background="new 0 0 50 50" xml:space="preserve"><g><path fill-rule="evenodd" clip-rule="evenodd" d="M12.088,10.015h11.465V0H12.088V10.015z M26.448,0v10.015h11.465V0H26.448z    M37.913,12.91H26.448V27.1h11.465V12.91z M12.243,32.79v12.989H9.349V32.79H12.243z M19.304,32.79v12.989h-2.896V32.79H19.304z    M26.448,32.79v12.989h-2.895V32.79H26.448z M33.427,32.79v12.989h-2.895V32.79H33.427z M40.406,32.79v12.989h-2.895V32.79H40.406z    M44.819,28.44H5.176v-2.078h0.482v-3.849H1.809v3.849h0.483L2.293,50h45.422V26.361h0.477v-3.849h-3.849v3.849h0.477V28.44z    M12.088,12.91V27.1h11.465V12.91H12.088z"/></g></svg>