<svg fill="#86AD5B" xmlns="http://www.w3.org/2000/svg" version="1.1" viewBox="0 0 100.0 100.0">
 <path d="m49.438 19.129 33.438 24.953c1.1055 0.82422 2.6719 0.59766 3.5-0.50781 0.82422-1.1055 0.59766-2.6719-0.51172-3.5l-10.887-8.125v-14.957c0-0.55469-0.44531-1-1-1h-9.4766c-0.55078 0-1 0.44531-1 1v6.3906l-11.379-8.4883c-1.6133-1.207-3.8359-1.1914-5.4336 0.039063l-32.711 25.164c-1.0938 0.83984-1.3008 2.4102-0.45703 3.5039 0.83984 1.0938 2.4102 1.3008 3.5039 0.45703zm-28.984 28.695c-0.49219 0.37891-0.77734 0.96484-0.77734 1.5859v34.582c0 1.1055 0.89453 2 2 2h18.867v-24.09c0-1.1016 0.89453-2 2-2h14.785c1.1016 0 2 0.89844 2 2v24.09h17.824c1.1055 0 2-0.89453 2-2v-34.582c0-0.62109-0.28906-1.207-0.77734-1.5859l-27.738-21.41c-0.72266-0.55859-1.7266-0.55859-2.4453 0z" fill-rule="evenodd"/>
</svg>