<svg fill="#fff" xmlns="http://www.w3.org/2000/svg" viewBox="0 0 64 64" x="0px" y="0px"><g><path d="M12,17V28H31V17a3.00328,3.00328,0,0,0-3-3H15A3.00328,3.00328,0,0,0,12,17Z"/><rect x="8" y="46" width="6" height="4"/><rect x="12" y="30" width="40" height="6"/><rect x="50" y="46" width="6" height="4"/><path d="M57,24H54V38H10V24H7a3.00328,3.00328,0,0,0-3,3V44H60V27A3.00328,3.00328,0,0,0,57,24ZM8,30H6V28H8Zm50,0H56V28h2Z"/><path d="M52,17a3.00328,3.00328,0,0,0-3-3H36a3.00328,3.00328,0,0,0-3,3V28H52Z"/></g></svg>