<svg fill="#ffffff" xmlns="http://www.w3.org/2000/svg" version="1.1" viewBox="0 0 110.0 110.0">
 <g>
  <path d="m16.414 34.934h67.172v3.7656h-67.172z"/>
  <path d="m13.086 23.633h73.828l5.2734-15.82h-84.375z"/>
  <path d="m89.613 30.789v-3.0156c0-1.0391-0.84375-1.8828-1.8828-1.8828h-75.457c-1.0391 0-1.8828 0.84375-1.8828 1.8828v3.0117c0 1.0391 0.84375 1.8828 1.8828 1.8828h75.461c1.0352 0.003906 1.8789-0.83984 1.8789-1.8789z"/>
  <path d="m91.055 89.93h-7.4727v-48.969h-67.168v48.969h-7.4688c-0.625 0-1.1328 0.50781-1.1328 1.1328 0 0.62109 0.50781 1.125 1.1328 1.125h82.117c0.625 0 1.1328-0.50781 1.1328-1.1328-0.003906-0.625-0.51562-1.125-1.1406-1.125zm-20.34 0h-41.43v-21.473c0-11.426 9.293-20.715 20.715-20.715s20.715 9.293 20.715 20.715z"/>
  <path d="m48.828 56.039c-0.71875-0.23437-1.5078 0.027344-1.9453 0.63672s-0.43359 1.4375 0.011719 2.043c1.3828 1.875 1.9141 4.7109 1.3203 7.0547-0.29297 1.1797-1.0117 2.75-2.7383 3.5625-0.80859 0.38672-1.3438 0.34766-1.5469 0.19922-0.19531-0.13672-0.39844-0.60156-0.30469-1.4453 0.078125-0.73047-0.3125-1.4336-0.97656-1.7539-0.66797-0.32031-1.457-0.18359-1.9805 0.34375-0.14844 0.14844-3.6953 3.7617-3.6953 8.6172 0 6.5664 5.8359 11.906 13.008 11.906 7.0273 0 12.617-5.0742 13-11.805 0.82422-14.375-14.004-19.312-14.152-19.359z"/>
 </g>
</svg>