<svg fill="#fff" xmlns="http://www.w3.org/2000/svg" viewBox="0 0 24 24" x="0px" y="0px"><defs><style>.cls-1{stroke-width:0px;}</style></defs><path class="cls-1" d="M17,2.25H7c-1.517,0-2.75,1.233-2.75,2.75v14c0,1.517,1.233,2.75,2.75,2.75h10c1.517,0,2.75-1.233,2.75-2.75V5c0-1.517-1.233-2.75-2.75-2.75ZM9.249,13.75c-.156,0-.314-.049-.449-.15-.331-.248-.398-.718-.149-1.05l3.75-5c.246-.331.717-.399,1.05-.149.331.248.398.718.149,1.05l-3.75,5c-.146.196-.372.3-.601.3ZM15.6,11.45l-3.75,5c-.146.196-.372.3-.601.3-.156,0-.314-.049-.449-.15-.331-.248-.398-.718-.149-1.05l3.75-5c.246-.33.718-.399,1.05-.149.331.248.398.718.149,1.05Z"/></svg>