<svg fill="#fff" xmlns="http://www.w3.org/2000/svg" viewBox="0 0 100 100" x="0px" y="0px"><g data-name="Layer 2"><path d="M41.34,4.92H24.16a4.3,4.3,0,0,0-4.29,4.29H45.63A4.3,4.3,0,0,0,41.34,4.92Z"/><path d="M75.69,4.92H58.51a4.3,4.3,0,0,0-4.29,4.29H80A4.3,4.3,0,0,0,75.69,4.92Z"/><path d="M80,13.5H19.87A10.75,10.75,0,0,0,9.14,24.24v8.59H90.71V24.24A10.75,10.75,0,0,0,80,13.5Zm-55.82,15a4.29,4.29,0,1,1,4.3-4.29A4.29,4.29,0,0,1,24.16,28.53Zm17.18,0a4.29,4.29,0,1,1,4.29-4.29A4.3,4.3,0,0,1,41.34,28.53Zm17.17,0a4.29,4.29,0,1,1,4.3-4.29A4.29,4.29,0,0,1,58.51,28.53Zm17.18,0A4.29,4.29,0,1,1,80,24.24,4.29,4.29,0,0,1,75.69,28.53Z"/><rect x="22.02" y="58.59" width="55.82" height="25.76" rx="2.15"/><path d="M9.14,37.12V84.35A10.74,10.74,0,0,0,19.87,95.08H80A10.74,10.74,0,0,0,90.71,84.35V37.12ZM22,43.56H77.83a2.15,2.15,0,1,1,0,4.29H22a2.15,2.15,0,1,1,0-4.29ZM82.13,82.2a6.44,6.44,0,0,1-6.44,6.44H24.16a6.44,6.44,0,0,1-6.44-6.44V60.73a6.45,6.45,0,0,1,6.44-6.44H75.69a6.45,6.45,0,0,1,6.44,6.44Z"/></g></svg>