<svg fill="#83a360" xmlns="http://www.w3.org/2000/svg"  viewBox="0 0 100 100" x="0px" y="0px"><g ><path d="m41.5 19.2c-4.7 0-8.5-3.8-8.5-8.5s3.8-8.5 8.5-8.5 8.5 3.8 8.5 8.5-3.8 8.5-8.5 8.5z"/><path d="m58.2 30.9c-1.2-5.4-4.9-9.1-10.4-9.1h-12.5c-5.5 0-10.2 4.2-10.6 9.8l-1.5 17.8c-.1 1.7 1.1 3.2 2.9 3.4h.5c1.6-.2 2.8-1.5 2.9-3l1.3-16.5c.1-.5.2-1.5 1.1-1.5.3 0 .8.1.8 1.3v51c.1 2.1 1.9 3.7 4 3.6 1.9-.1 3.5-1.7 3.6-3.6v-29c.8-.1 1.6-.1 2.5 0v28.9c.1 2.1 1.9 3.7 4 3.6 1.9-.1 3.5-1.7 3.6-3.6v-51c0-1.2.5-1.3.8-1.3.9 0 1.1 1.3 1.2 1.7l2.5 12.5c.3 1.5 1.7 2.6 3.3 2.6 1.7-.1 3.1-1.6 3-3.3 0-.2 0-.4-.1-.5z"/><path d="m73.5 53.4c3.9 0 7-3.1 7-7s-3.1-7-7-7-7 3.1-7 7 3.1 7 7 7z"/><path d="m84.5 59.1c-.8-1.5-2.1-2.6-3.6-3.2-1-.4-2-.6-3.1-.5-1.7 0-5.3 0-6.9-.2-.1 0-5.3 0-7.7-4.6-.6-1.2-1.8-1.8-3.1-1.6-1.5.3-2.4 1.8-2.1 3.3 0 .2.1.4.2.6 1.5 3.5 4.5 6.1 8.2 7.1v24.8c0 1.5 1 2.8 2.4 3.1 1.6.4 3.2-.7 3.6-2.3.1-.2.1-.5.1-.7v-13.5h1.8v13.4c0 1.7 1.4 3 3 3s3-1.4 3-3v-22.4c.1-.4.5-.3.7.3.5 1.3.9 2.5 1 6.3.1 1.2 1.1 2.2 2.3 2.2h.1c1.3-.1 2.3-1.2 2.2-2.5 0-3.5 0-5.9-2.1-9.6z"/></g></svg>