<svg fill="#fff" xmlns="http://www.w3.org/2000/svg" version="1.1" viewBox="0 0 100.0 100.0">
 <g>
  <path d="m3.125 23.078c0-4.1172 3.3359-7.4531 7.4531-7.4531h78.844c4.1172 0 7.4531 3.3359 7.4531 7.4531 0 14.867-12.055 26.922-26.922 26.922h-39.906c-14.867 0-26.922-12.055-26.922-26.922z"/>
  <path d="m92.121 80.613-6.2891-30.199c-4.668 2.7188-10.094 4.2734-15.879 4.2734h-3.5625l10.371 27.66c0.45703 1.2188 1.625 2.0273 2.9258 2.0273h9.375c0.94141 0 1.832-0.42188 2.4258-1.1523 0.59375-0.73047 0.82422-1.6875 0.63281-2.6094z"/>
  <path d="m30.047 54.688c-5.7852 0-11.211-1.5547-15.879-4.2734l-6.2891 30.199c-0.19141 0.92188 0.039063 1.8789 0.63281 2.6094 0.59375 0.73047 1.4844 1.1523 2.4258 1.1523h9.375c1.3008 0 2.4688-0.80859 2.9258-2.0273l10.371-27.66z"/>
 </g></svg>