<svg fill="#ffffff" xmlns="http://www.w3.org/2000/svg" version="1.1" viewBox="0 0 100 100">
 <g fill-rule="evenodd">
  <path d="m46.875 3.125h-25c-5.1758 0-9.375 4.1992-9.375 9.375v68.75c0 4.9766 3.8789 9.0508 8.7773 9.3555l-0.76562 2.0469c-0.60547 1.6172 0.21094 3.418 1.8281 4.0234 1.6172 0.60547 3.418-0.21094 4.0234-1.8281l1.582-4.2227h18.93zm-6.25 42.188c0-1.7266-1.3984-3.125-3.125-3.125s-3.125 1.3984-3.125 3.125v3.125c0 1.7266 1.3984 3.125 3.125 3.125s3.125-1.3984 3.125-3.125z"/>
  <path d="m53.125 90.625h18.93l1.582 4.2227c0.60547 1.6172 2.4062 2.4336 4.0234 1.8281 1.6172-0.60547 2.4336-2.4062 1.8281-4.0234l-0.76562-2.0469c4.8984-0.30469 8.7773-4.3789 8.7773-9.3555v-68.75c0-5.1758-4.1992-9.375-9.375-9.375h-25zm9.375-48.438c1.7266 0 3.125 1.3984 3.125 3.125v3.125c0 1.7266-1.3984 3.125-3.125 3.125s-3.125-1.3984-3.125-3.125v-3.125c0-1.7266 1.3984-3.125 3.125-3.125z"/>
 </g></svg>