<svg fill="#86AD5B" xmlns:rdf="http://www.w3.org/1999/02/22-rdf-syntax-ns#" xmlns="http://www.w3.org/2000/svg" xmlns:cc="http://creativecommons.org/ns#" xmlns:dc="http://purl.org/dc/elements/1.1/" xml:space="preserve" viewBox="0 0 100 100" version="1.1" y="0px" x="0px"><path d="m50 10.02c-17.509-0.001-35.019 6.408-48.662 19.222-0.84503 0.794-1.3196 1.866-1.338 3.024-0.017969 1.152 0.42149 2.238 1.2363 3.052l8.0157 8.016c1.613 1.613 4.184 1.663 5.853 0.115 9.494-8.808 21.886-13.66 34.895-13.66s25.401 4.852 34.895 13.66c0.812 0.755 1.837 1.129 2.863 1.129 1.081 0 2.162-0.416 2.99-1.244l8.016-8.016c0.815-0.814 1.256-1.9 1.236-3.052-0.019-1.157-0.495-2.23-1.34-3.024-13.643-12.814-31.151-19.222-48.66-19.222zm0 31.091c-9.832 0-19.272 3.584-26.58 10.09-0.859 0.765-1.371 1.865-1.404 3.018-0.034 1.16 0.417 2.294 1.238 3.115l8.033 8.033c1.563 1.562 4.012 1.668 5.701 0.246 3.623-3.05 8.245-4.73 13.012-4.73s9.389 1.68 13.012 4.73c0.794 0.669 1.756 1 2.717 1 1.08 0 2.158-0.418 2.986-1.246l8.031-8.031c0.82-0.821 1.272-1.957 1.238-3.117-0.033-1.153-0.545-2.253-1.404-3.018-7.308-6.506-16.748-10.09-26.58-10.09zm0 31.09c-2.375 0-4.608 0.927-6.287 2.606-3.466 3.467-3.467 9.107 0 12.574 1.733 1.733 4.01 2.599 6.287 2.599s4.554-0.866 6.287-2.599c1.679-1.679 2.604-3.912 2.604-6.287s-0.925-4.608-2.604-6.287c-1.679-1.68-3.912-2.606-6.287-2.606z"/></svg>